<?xml version="1.0" standalone="no"?>
<!DOCTYPE svg PUBLIC "-//W3C//DTD SVG 20010904//EN"
 "http://www.w3.org/TR/2001/REC-SVG-20010904/DTD/svg10.dtd">
<svg version="1.0" xmlns="http://www.w3.org/2000/svg"
 width="654.000000pt" height="429.000000pt" viewBox="0 0 654.000000 429.000000"
 preserveAspectRatio="xMidYMid meet">

<g transform="translate(0.000000,429.000000) scale(0.100000,-0.100000)"
fill="#000000" stroke="none">
<path d="M5563 3064 c-3 -8 -1 -20 6 -27 16 -16 14 -45 -5 -55 -17 -9 -12 -32
7 -32 6 0 21 12 34 26 27 29 33 72 13 92 -17 17 -48 15 -55 -4z"/>
<path d="M3804 3041 c-82 -51 -65 -219 24 -245 38 -11 101 0 109 20 7 20 -17
48 -31 34 -5 -5 -22 -10 -37 -10 -36 0 -59 33 -59 85 0 69 39 102 89 75 14 -7
23 -5 35 9 15 16 15 19 1 31 -27 22 -97 23 -131 1z"/>
<path d="M3990 2930 c0 -79 4 -130 10 -131 44 -6 45 -5 48 49 l3 52 44 0 44 0
3 -52 c3 -48 5 -52 31 -55 l27 -4 0 136 0 135 -30 0 c-30 0 -30 -1 -30 -55 l0
-55 -45 0 -45 0 0 55 c0 54 0 55 -30 55 l-30 0 0 -130z"/>
<path d="M4270 2926 l0 -135 28 2 27 2 2 119 c0 66 -1 125 -4 133 -3 7 -16 13
-29 13 l-24 0 0 -134z"/>
<path d="M4390 2930 c0 -71 3 -130 8 -131 4 0 39 -1 77 -2 66 -2 70 -1 73 21
3 20 0 22 -47 22 l-51 0 0 110 0 110 -30 0 -30 0 0 -130z"/>
<path d="M4588 3054 c-3 -5 -5 -65 -4 -134 l1 -125 30 1 c92 2 106 5 136 32
27 24 33 37 36 83 6 64 -7 102 -42 125 -27 18 -149 32 -157 18z m122 -64 c14
-14 20 -33 20 -65 0 -52 -25 -85 -65 -85 -25 0 -25 1 -25 85 0 84 0 85 25 85
14 0 34 -9 45 -20z"/>
<path d="M4842 2929 l3 -134 25 0 c23 0 25 4 28 48 4 58 17 58 52 -3 20 -34
32 -44 53 -45 15 -1 27 2 27 7 0 14 -38 86 -49 93 -5 3 1 16 15 30 29 29 31
74 5 106 -16 19 -30 24 -90 27 l-72 4 3 -133z m113 46 c0 -25 -4 -30 -27 -33
-26 -3 -28 -1 -28 33 0 34 2 36 28 33 23 -3 27 -8 27 -33z"/>
<path d="M5082 2928 l3 -133 75 0 c70 0 75 2 78 23 3 20 -1 22 -46 22 -45 0
-50 2 -54 25 -6 30 -1 34 46 37 30 3 36 7 36 26 0 19 -5 22 -38 22 -46 0 -51
3 -44 35 4 22 9 25 48 25 40 0 44 2 44 25 0 24 -2 25 -75 25 l-76 0 3 -132z"/>
<path d="M5292 2928 l3 -133 25 0 c24 0 25 2 30 83 l5 83 42 -84 c40 -82 43
-85 75 -83 l33 2 2 118 c1 65 -1 124 -4 132 -3 8 -16 14 -30 14 l-25 0 4 -88
3 -89 -46 86 c-44 82 -48 86 -83 89 l-37 3 3 -133z"/>
<path d="M5703 3045 c-53 -37 -36 -103 37 -140 36 -18 50 -31 48 -43 -4 -23
-44 -27 -73 -8 -22 14 -24 14 -39 -9 -16 -24 -15 -25 13 -40 38 -19 84 -19
121 0 58 30 48 103 -19 137 -44 22 -65 43 -57 57 9 14 49 14 62 1 7 -7 17 -4
30 11 18 20 18 21 -1 35 -25 18 -95 18 -122 -1z"/>
<path d="M2626 2992 c-110 -59 -138 -189 -59 -283 36 -43 77 -60 139 -60 67 0
108 21 149 79 23 34 29 53 29 95 0 57 -30 123 -66 146 -95 59 -119 62 -192 23z"/>
<path d="M3219 2985 c-25 -14 -93 -96 -119 -145 -23 -43 -126 -173 -177 -222
-82 -80 -116 -90 -342 -95 -151 -4 -200 -9 -213 -20 -11 -10 -18 -11 -23 -4
-11 20 -44 12 -179 -44 -185 -76 -237 -88 -306 -74 -74 15 -151 52 -305 150
-72 45 -147 87 -168 95 -34 12 -39 12 -57 -6 -25 -25 -25 -51 -2 -78 9 -11 92
-63 183 -115 277 -159 292 -169 314 -212 18 -36 20 -60 20 -215 l0 -175 26 -3
c34 -4 45 11 58 82 23 123 73 176 166 176 68 0 141 -45 274 -167 55 -51 106
-93 114 -93 22 0 39 26 106 163 72 149 121 209 184 227 83 23 140 -9 211 -116
23 -36 38 -49 55 -49 47 0 47 26 3 116 -45 94 -69 160 -83 233 -8 42 -6 54 11
84 25 41 188 256 224 294 51 54 106 141 106 169 0 17 -8 34 -22 43 -27 19 -26
19 -59 1z m-744 -530 c102 -8 153 -27 161 -60 4 -15 -14 -77 -49 -172 -30 -81
-67 -183 -82 -225 -15 -43 -31 -78 -35 -78 -3 0 -49 48 -101 107 -52 59 -124
140 -161 180 -71 76 -83 109 -55 146 17 24 198 117 217 112 8 -2 56 -7 105
-10z"/>
<path d="M1854 2766 c-98 -43 -140 -156 -93 -253 25 -51 59 -78 122 -94 82
-23 170 22 208 106 23 51 23 89 0 140 -45 97 -146 140 -237 101z"/>
<path d="M3762 2478 l3 -133 78 -3 c76 -2 77 -2 77 23 0 23 -3 25 -51 25 l-50
0 3 33 c3 30 5 32 43 32 33 0 40 3 40 20 0 16 -8 21 -42 23 -40 3 -43 5 -43
33 0 28 1 29 50 29 47 0 50 2 50 25 0 25 -1 25 -80 25 l-81 0 3 -132z"/>
<path d="M3980 2477 l0 -133 25 -2 c25 -2 25 -2 25 91 l1 92 40 -80 c44 -87
61 -105 96 -105 23 0 23 1 23 135 l0 135 -25 0 c-25 0 -25 -1 -25 -91 l0 -91
-47 91 c-45 86 -49 91 -80 91 l-33 0 0 -133z"/>
<path d="M4262 2478 l3 -133 62 2 c34 1 72 7 83 13 46 25 68 123 41 187 -17
41 -64 63 -135 63 l-57 0 3 -132z m123 62 c26 -29 23 -109 -6 -133 -12 -10
-31 -17 -41 -15 -17 3 -20 13 -21 86 l-2 82 26 0 c14 0 34 -9 44 -20z"/>
<path d="M4541 2582 c-46 -45 -52 -148 -12 -202 37 -51 125 -51 163 1 39 53
35 163 -7 205 -36 36 -107 34 -144 -4z m109 -41 c13 -25 13 -92 0 -125 -11
-29 -50 -36 -69 -12 -19 23 -24 81 -11 120 10 30 16 36 40 36 19 0 33 -7 40
-19z"/>
<path d="M4770 2474 l0 -135 28 3 c25 3 27 7 30 51 2 26 7 47 12 47 5 0 21
-21 34 -48 18 -36 30 -48 50 -50 38 -3 40 14 7 67 -24 40 -27 50 -15 55 21 8
36 55 29 88 -9 38 -50 58 -120 58 l-55 0 0 -136z m113 65 c15 -24 1 -49 -28
-49 -22 0 -25 4 -25 36 0 31 3 35 21 32 12 -2 27 -10 32 -19z"/>
<path d="M5002 2478 l3 -133 78 -3 77 -4 0 26 c0 25 -3 26 -50 26 -50 0 -50 0
-50 33 0 31 2 33 33 32 44 -3 56 3 54 26 -1 16 -9 19 -44 19 -41 0 -43 1 -43
30 0 29 1 30 50 30 47 0 50 2 50 25 0 25 -1 25 -80 25 l-81 0 3 -132z"/>
<path d="M3740 2149 c0 -16 49 -211 59 -234 6 -13 19 -21 39 -23 l31 -2 22 97
22 97 21 -94 21 -95 34 0 35 0 26 105 c15 58 30 117 33 133 7 25 5 27 -21 27
-28 0 -30 -2 -48 -85 -10 -46 -21 -81 -25 -77 -4 4 -14 42 -23 85 l-17 77 -34
0 c-33 0 -34 0 -49 -69 -9 -39 -16 -77 -16 -85 0 -9 -4 -16 -10 -16 -5 0 -10
6 -10 14 0 7 -7 46 -16 85 -15 68 -17 71 -45 71 -16 0 -29 -5 -29 -11z"/>
<path d="M4130 2026 l0 -134 78 1 c71 2 77 4 80 24 3 20 -2 22 -50 25 -54 3
-56 6 -49 56 1 4 18 7 39 7 31 0 38 4 40 23 3 20 -1 22 -37 22 -26 0 -41 5
-42 13 0 6 -2 20 -4 30 -3 14 4 17 46 17 46 0 49 2 49 25 0 24 -2 25 -75 25
l-75 0 0 -134z"/>
<path d="M4340 2030 c0 -149 -3 -144 101 -138 47 3 54 6 57 26 3 20 0 22 -47
22 l-51 0 0 110 0 110 -30 0 -30 0 0 -130z"/>
<path d="M4542 2028 c3 -130 3 -133 26 -134 24 -1 35 22 30 66 -3 23 1 25 40
28 37 3 42 6 42 28 0 21 -4 24 -40 24 -25 0 -40 5 -41 13 0 6 -2 22 -5 35 -4
20 0 22 46 22 47 0 50 2 50 25 0 24 -2 25 -75 25 l-76 0 3 -132z"/>
<path d="M4747 2038 c-21 -68 -37 -128 -37 -134 0 -6 11 -11 26 -11 20 0 26 6
31 28 4 21 12 29 27 30 11 0 31 2 44 3 18 2 26 -5 37 -29 10 -25 19 -32 39
-32 14 0 26 2 26 6 0 3 -18 62 -38 131 l-38 125 -41 3 -40 3 -36 -123z m103
-30 c0 -5 -13 -8 -30 -8 -16 0 -30 2 -30 4 0 3 16 54 27 86 4 13 32 -58 33
-82z"/>
<path d="M4980 2032 c0 -109 3 -131 16 -136 37 -14 44 -7 44 45 0 62 14 61 50
-1 20 -34 32 -44 53 -45 15 -1 27 2 27 7 0 14 -38 86 -49 93 -5 3 1 16 15 30
29 29 32 74 6 105 -15 18 -31 23 -90 28 l-72 5 0 -131z m115 43 c0 -25 -4 -30
-27 -33 -26 -3 -28 -1 -28 33 0 34 2 36 28 33 23 -3 27 -8 27 -33z"/>
<path d="M5216 2152 c-2 -4 -3 -63 -2 -132 l2 -125 80 0 c74 0 79 1 82 23 3
21 0 22 -52 22 -56 0 -56 0 -56 30 0 26 4 30 28 31 53 2 57 4 60 27 3 20 -1
22 -42 22 -44 0 -46 1 -46 30 0 29 1 30 50 30 47 0 50 2 50 25 0 24 -2 25 -74
25 -41 0 -77 -3 -80 -8z"/>
<path d="M3815 1698 c-3 -7 -20 -65 -39 -128 -26 -85 -32 -116 -23 -122 22
-14 37 -5 54 33 10 23 15 25 54 20 36 -5 44 -10 49 -31 4 -19 13 -25 33 -26
15 -1 27 4 27 10 0 6 -16 66 -36 134 l-37 122 -39 0 c-22 0 -41 -5 -43 -12z
m60 -97 l13 -51 -30 0 c-28 0 -30 2 -24 26 4 15 10 39 13 56 7 36 11 32 28
-31z"/>
<path d="M4036 1687 c-47 -47 -31 -94 45 -133 35 -17 49 -30 47 -42 -4 -23
-44 -27 -73 -8 -22 15 -25 14 -39 -6 -24 -34 1 -53 70 -53 49 0 59 4 80 28 42
49 25 90 -51 126 -31 15 -45 27 -45 41 0 15 7 20 28 20 15 0 33 -5 38 -10 7
-7 16 -4 29 10 25 28 10 42 -54 48 -43 4 -53 1 -75 -21z"/>
<path d="M4256 1689 c-38 -30 -36 -79 5 -113 17 -14 36 -26 43 -26 18 0 49
-37 41 -49 -9 -16 -58 -14 -80 3 -17 12 -21 12 -33 -6 -20 -28 3 -49 59 -55
52 -5 89 12 107 49 19 41 1 73 -58 103 -36 18 -50 31 -50 46 0 21 18 23 68 8
8 -2 19 4 25 14 28 43 -77 65 -127 26z"/>
<path d="M4480 1682 c-54 -55 -50 -177 8 -222 37 -30 107 -23 139 14 43 51 42
168 -2 212 -36 36 -107 34 -145 -4z m108 -40 c14 -19 16 -90 2 -126 -10 -28
-49 -36 -68 -13 -28 33 -26 122 4 151 16 17 42 11 62 -12z"/>
<path d="M4763 1700 c-43 -17 -64 -68 -60 -139 3 -57 7 -67 35 -92 35 -31 85
-38 125 -18 30 16 30 15 17 38 -9 17 -15 19 -30 11 -30 -16 -58 -12 -74 12
-18 25 -21 100 -6 129 12 22 59 26 78 7 9 -9 15 -8 27 8 20 27 19 33 -11 44
-31 12 -71 12 -101 0z"/>
<path d="M4942 1578 l3 -133 25 0 25 0 2 118 c1 65 -1 125 -4 133 -3 8 -16 14
-29 14 l-25 0 3 -132z"/>
<path d="M5115 1698 c-30 -81 -72 -245 -66 -251 15 -15 49 3 55 28 4 14 14 25
24 26 9 0 29 2 44 4 23 3 29 -1 35 -23 7 -30 20 -42 46 -42 24 0 22 15 -20
151 l-37 119 -38 0 c-22 0 -41 -5 -43 -12z m64 -125 c1 -18 -5 -23 -24 -23
-29 0 -29 3 -13 65 l12 46 12 -33 c7 -18 13 -43 13 -55z"/>
<path d="M5270 1685 c0 -22 4 -25 35 -25 l35 0 0 -111 c0 -109 0 -110 23 -107
31 4 35 20 36 126 l1 92 30 0 c25 0 30 4 30 25 0 25 0 25 -95 25 -95 0 -95 0
-95 -25z"/>
<path d="M5500 1575 l0 -135 24 2 c32 3 38 26 35 147 -2 114 -4 121 -35 121
l-24 0 0 -135z"/>
<path d="M5661 1694 c-69 -49 -66 -210 5 -243 49 -22 122 -3 143 37 32 61 19
167 -26 201 -31 25 -89 27 -122 5z m99 -65 c14 -33 8 -102 -10 -124 -34 -42
-80 3 -80 77 0 82 63 114 90 47z"/>
<path d="M5880 1577 l0 -133 25 0 c25 0 25 1 26 91 l0 90 45 -87 c24 -49 48
-88 52 -89 4 -1 19 -2 35 -3 l27 -3 0 134 0 133 -25 0 c-25 0 -25 -1 -25 -91
l0 -90 -47 90 c-45 87 -48 91 -80 91 l-33 0 0 -133z"/>
</g>
</svg>
