<?xml version="1.0" standalone="no"?>
<!DOCTYPE svg PUBLIC "-//W3C//DTD SVG 20010904//EN"
 "http://www.w3.org/TR/2001/REC-SVG-20010904/DTD/svg10.dtd">
<svg version="1.0" xmlns="http://www.w3.org/2000/svg"
 width="1306.000000pt" height="1046.000000pt" viewBox="0 0 1306.000000 1046.000000"
 preserveAspectRatio="xMidYMid meet">
<metadata>
Created by potrace 1.16, written by Peter Selinger 2001-2019
</metadata>
<g transform="translate(0.000000,1046.000000) scale(0.100000,-0.100000)"
fill="#000000" stroke="none">
<path d="M8657 10404 c-3 -3 29 -50 72 -103 43 -53 115 -145 161 -206 131
-173 207 -259 372 -420 154 -152 240 -221 258 -210 36 22 -56 280 -170 475
-106 182 -307 332 -582 434 -107 40 -102 38 -111 30z"/>
<path d="M4195 10311 c-234 -84 -489 -291 -579 -470 -57 -114 -153 -418 -137
-434 16 -16 122 77 301 260 151 154 242 266 494 603 45 61 18 75 -79 41z"/>
<path d="M9463 9995 c-3 -9 2 -24 10 -33 52 -57 177 -401 248 -681 22 -86 42
-165 46 -176 3 -11 -31 15 -78 60 -46 44 -151 132 -234 195 -142 109 -255 202
-372 306 -45 39 -54 44 -59 29 -14 -35 51 -195 119 -295 49 -72 141 -163 303
-300 83 -71 222 -196 309 -280 87 -83 163 -149 169 -147 21 7 27 115 23 417
-4 348 -7 364 -86 525 -79 159 -239 340 -338 381 -42 18 -52 18 -60 -1z"/>
<path d="M3434 9912 c-21 -16 -66 -58 -99 -93 -208 -220 -246 -338 -244 -749
2 -260 12 -443 25 -447 24 -8 652 603 743 724 88 115 162 289 132 308 -14 8
-49 -18 -156 -115 -44 -40 -144 -126 -222 -191 -78 -65 -193 -171 -256 -235
l-114 -116 59 234 c67 266 103 389 160 537 38 100 46 160 22 168 -6 2 -28 -10
-50 -25z"/>
<path d="M4455 9358 c-3 -7 -4 -485 -3 -1063 l3 -1050 42 0 c23 0 39 -2 37 -5
-5 -5 246 -40 313 -43 22 -1 39 -4 37 -7 -7 -7 119 -31 134 -25 8 3 10 0 6 -7
-5 -7 1 -9 19 -6 15 3 24 1 21 -3 -5 -8 20 -13 68 -13 9 0 15 -2 13 -6 -6 -10
95 -31 108 -23 7 3 9 2 4 -2 -9 -11 133 -57 153 -49 8 3 11 2 7 -2 -7 -8 205
-95 235 -97 9 -1 15 -3 13 -6 -8 -8 77 -41 88 -34 6 4 7 1 2 -7 -6 -10 -4 -12
9 -7 11 5 15 3 10 -5 -5 -8 -2 -9 10 -5 9 4 15 3 12 -1 -6 -10 113 -69 128
-64 6 2 8 0 4 -4 -10 -10 63 -54 77 -47 5 4 7 2 3 -2 -10 -10 63 -56 76 -48 5
4 6 1 2 -5 -7 -11 7 -17 29 -12 6 1 7 -1 3 -5 -4 -4 25 -32 65 -63 40 -30 104
-86 143 -124 38 -38 74 -65 78 -61 4 4 6 3 4 -2 -3 -10 121 -165 132 -165 8 0
145 163 145 172 0 5 3 7 6 6 3 -2 36 25 73 60 37 34 105 91 151 126 46 35 81
67 77 71 -4 5 -2 6 3 2 14 -7 87 38 77 48 -4 4 -2 6 3 2 11 -6 88 37 80 45 -3
2 1 5 8 5 23 1 236 111 229 119 -4 4 -2 4 4 1 6 -4 48 9 94 28 45 20 133 53
195 74 63 21 112 41 109 44 -4 3 4 3 17 0 17 -5 20 -3 14 7 -5 8 -4 11 3 7 15
-10 112 14 105 26 -3 6 -2 7 4 4 15 -10 123 15 116 26 -3 6 -1 7 5 3 16 -10
93 5 85 17 -3 6 -1 7 5 3 14 -8 113 4 108 13 -3 4 11 5 31 3 20 -3 33 -1 30 5
-3 5 9 7 29 5 19 -2 34 0 34 5 0 5 18 7 40 5 22 -2 40 0 40 5 0 4 21 6 46 4
26 -2 44 1 41 5 -3 5 14 9 36 9 l42 0 0 1060 0 1060 -67 3 c-39 2 -68 -1 -68
-7 0 -5 -18 -7 -40 -4 -25 4 -40 2 -40 -5 0 -7 -13 -9 -35 -5 -22 3 -35 2 -35
-5 0 -7 -13 -9 -35 -5 -20 3 -35 1 -35 -4 0 -5 -14 -7 -31 -5 -19 3 -29 1 -26
-5 4 -5 -7 -8 -25 -5 -21 3 -29 1 -24 -7 5 -7 -3 -9 -25 -4 -21 4 -30 2 -26
-4 4 -6 -3 -8 -18 -5 -14 2 -25 0 -25 -5 0 -6 -12 -8 -26 -5 -20 4 -25 2 -19
-8 5 -9 4 -11 -3 -6 -14 9 -84 -3 -77 -14 2 -4 -7 -5 -22 -2 -17 3 -24 1 -19
-6 4 -6 -2 -8 -14 -5 -12 3 -20 0 -20 -6 0 -7 -4 -9 -10 -6 -12 7 -90 -15 -90
-26 0 -5 -7 -6 -15 -3 -8 4 -15 2 -15 -4 0 -6 -10 -8 -22 -4 -13 3 -19 1 -15
-5 5 -7 -1 -9 -15 -5 -13 3 -19 1 -15 -5 5 -7 -1 -9 -15 -5 -16 4 -19 2 -13
-8 5 -8 4 -11 -2 -7 -13 8 -84 -14 -78 -24 3 -4 -5 -5 -17 -1 -14 3 -19 1 -14
-6 5 -8 2 -10 -8 -6 -9 3 -16 1 -16 -6 0 -6 -4 -9 -9 -6 -14 9 -42 -5 -34 -17
3 -5 1 -7 -4 -4 -14 9 -76 -17 -66 -27 4 -4 -1 -4 -11 0 -15 6 -17 4 -11 -6 5
-8 4 -11 -3 -6 -14 9 -123 -45 -115 -57 3 -6 1 -7 -5 -3 -20 12 -169 -73 -155
-89 5 -4 2 -5 -4 -1 -15 9 -86 -37 -75 -49 4 -5 1 -5 -5 -1 -37 21 -472 -380
-445 -409 4 -5 2 -5 -5 -2 -6 4 -14 1 -17 -5 -3 -10 -9 -8 -19 4 -8 10 -17 16
-20 13 -4 -3 -5 -2 -2 1 15 21 -189 224 -343 342 -90 69 -104 77 -127 72 -5
-1 -7 2 -2 6 10 11 -105 85 -123 78 -8 -3 -11 -2 -7 2 4 4 -25 25 -65 46 -39
20 -74 36 -76 33 -2 -2 -11 3 -19 11 -9 8 -22 13 -30 10 -9 -4 -11 -2 -7 6 5
8 1 9 -12 4 -10 -4 -15 -4 -11 0 10 10 -52 36 -66 27 -6 -4 -7 -1 -2 7 6 10 4
12 -9 7 -10 -4 -15 -3 -11 3 6 9 -10 14 -42 13 -7 -1 -13 4 -13 9 0 6 -7 7
-16 4 -8 -3 -12 -2 -9 4 6 9 -10 14 -42 13 -7 -1 -13 4 -13 9 0 6 -7 7 -16 4
-10 -4 -13 -2 -8 6 5 7 0 9 -14 6 -14 -4 -20 -2 -15 5 4 6 -2 8 -15 5 -14 -4
-20 -2 -15 5 4 6 -2 8 -15 5 -14 -4 -20 -2 -15 5 4 6 -2 8 -15 5 -12 -3 -23
-1 -24 4 -2 6 -18 11 -35 12 -17 0 -29 5 -25 10 3 5 -5 7 -16 4 -12 -4 -22 -2
-22 4 0 6 -9 8 -20 5 -11 -3 -20 -1 -20 5 0 6 -9 8 -20 5 -12 -3 -18 -1 -14 5
5 7 -2 9 -19 6 -16 -3 -24 -1 -20 5 4 6 -4 8 -20 5 -16 -3 -24 -1 -20 5 4 6
-4 8 -21 5 -14 -3 -26 -1 -26 5 0 5 -9 7 -20 4 -11 -3 -20 -1 -20 5 0 6 -11 8
-25 6 -14 -3 -22 -1 -18 5 3 6 -6 8 -26 5 -17 -2 -31 0 -31 5 0 5 -13 7 -29 5
-17 -3 -27 0 -24 5 3 6 -9 8 -31 5 -20 -2 -36 0 -36 5 0 5 -16 7 -35 5 -19 -2
-35 0 -35 5 0 5 -20 7 -45 5 -25 -3 -45 -2 -45 3 0 15 -130 11 -135 -3z"/>
<path d="M10103 9348 c-26 -33 -39 -189 -52 -643 -10 -312 -6 -453 14 -535 7
-30 2 -20 -78 154 -30 66 -74 145 -97 177 -78 107 -474 479 -491 462 -6 -6 -6
-34 0 -74 19 -114 155 -363 331 -605 122 -168 218 -318 283 -441 36 -69 68
-118 77 -118 10 0 22 28 38 85 12 47 47 164 77 260 94 302 96 314 102 520 8
305 -25 483 -125 675 -48 91 -61 105 -79 83z"/>
<path d="M2897 9293 c-146 -240 -215 -604 -163 -853 39 -184 221 -750 243
-757 6 -2 40 56 76 129 37 73 103 187 147 253 298 439 396 615 437 781 26 103
12 102 -119 -14 -269 -238 -410 -422 -488 -640 -13 -34 -26 -65 -30 -67 -4 -2
-10 136 -13 308 -3 172 -12 357 -19 412 -12 103 -17 335 -8 440 4 50 2 60 -11
63 -12 2 -28 -16 -52 -55z"/>
<path d="M10436 8369 c-2 -8 -7 -39 -10 -71 -8 -76 -63 -264 -126 -428 -141
-367 -190 -502 -210 -575 -12 -44 -25 -87 -28 -95 -6 -17 -4 -26 -22 90 -14
91 -52 244 -79 323 -22 63 -70 151 -218 398 -100 167 -117 189 -135 171 -32
-32 82 -596 187 -921 50 -156 80 -309 91 -466 6 -98 16 -135 33 -135 11 0 251
323 339 455 126 190 197 352 229 529 21 112 24 545 5 641 -12 61 -47 113 -56
84z"/>
<path d="M2570 8260 c-23 -42 -32 -236 -20 -433 23 -391 62 -512 250 -771 124
-171 332 -427 344 -423 6 2 17 46 23 98 21 156 51 300 128 609 97 387 123 528
140 731 11 137 -4 122 -146 -136 -194 -356 -234 -466 -254 -697 -7 -88 -16
-162 -20 -166 -10 -10 -25 20 -25 49 0 74 -105 408 -165 529 -56 112 -149 364
-183 498 -36 138 -48 157 -72 112z"/>
<path d="M9591 7231 c-39 -75 -76 -319 -131 -846 -35 -343 -41 -378 -87 -514
-35 -106 -36 -131 -7 -131 51 0 344 190 560 364 251 201 422 411 514 632 45
108 66 201 79 342 16 175 7 181 -64 44 -61 -119 -174 -266 -352 -459 -83 -89
-175 -193 -205 -230 -90 -112 -224 -286 -243 -316 -10 -15 -20 -25 -23 -23 -3
3 0 11 5 18 19 24 81 204 97 281 30 144 18 299 -50 652 -47 243 -55 261 -93
186z"/>
<path d="M3427 7243 c-9 -16 -39 -163 -64 -313 -17 -109 -26 -211 -30 -346 -6
-215 5 -297 59 -437 16 -43 28 -80 26 -83 -2 -2 -39 43 -81 100 -98 134 -163
211 -354 422 -180 200 -285 329 -353 434 -95 145 -100 147 -100 39 0 -177 89
-429 223 -629 101 -151 318 -340 642 -559 239 -161 321 -202 340 -171 3 5 -6
38 -20 72 -52 124 -74 240 -125 653 -55 449 -105 759 -131 807 -10 19 -25 23
-32 11z"/>
<path d="M9278 6463 c-69 -93 -139 -204 -192 -305 -65 -124 -69 -134 -192
-463 -119 -320 -146 -379 -228 -504 -68 -103 -77 -127 -50 -138 62 -24 680
134 838 214 28 14 90 52 137 84 271 182 470 401 589 651 39 80 44 108 20 108
-6 0 -56 -40 -112 -88 -193 -166 -292 -231 -599 -391 -96 -50 -222 -120 -280
-154 -57 -34 -125 -75 -152 -90 l-47 -28 24 53 c13 29 49 105 79 168 73 150
112 271 143 444 13 78 38 212 55 300 38 202 33 226 -33 139z"/>
<path d="M3745 6448 c-14 -36 36 -384 81 -562 36 -145 70 -238 125 -346 56
-110 166 -252 209 -272 25 -11 41 -28 25 -28 -12 0 -55 24 -55 32 0 4 -6 8
-13 8 -7 0 -55 28 -107 61 -146 95 -335 201 -531 299 -277 139 -357 193 -519
347 -61 58 -95 83 -106 79 -18 -7 -14 -27 24 -101 97 -196 313 -454 481 -579
181 -134 342 -215 504 -255 123 -30 565 -104 582 -97 25 9 17 38 -32 116 -71
114 -161 310 -268 580 -53 135 -120 295 -150 355 -49 103 -161 282 -218 350
-22 26 -26 28 -32 13z"/>
<path d="M8650 5617 c-30 -24 -149 -133 -265 -242 -405 -382 -445 -411 -664
-486 -118 -41 -153 -61 -136 -78 14 -13 617 -146 746 -165 209 -31 448 -16
607 38 200 69 463 239 596 387 46 51 55 72 35 84 -5 4 -76 -25 -157 -63 -215
-103 -262 -113 -792 -167 -190 -19 -370 -39 -400 -44 -49 -8 -71 -7 -59 2 2 2
45 32 96 66 101 68 217 183 283 281 39 58 62 103 165 327 53 115 37 132 -55
60z"/>
<path d="M4323 5634 c-9 -23 132 -304 215 -429 112 -169 251 -288 387 -331 27
-8 56 -18 64 -20 48 -15 -25 -10 -235 16 -131 16 -356 41 -499 55 -327 32
-410 49 -584 120 -134 54 -161 59 -161 31 0 -33 224 -214 380 -308 89 -53 211
-109 295 -135 51 -15 95 -18 305 -17 274 0 339 8 605 74 251 62 370 102 370
125 0 15 -19 25 -95 49 -200 65 -304 140 -735 535 -178 163 -283 251 -298 251
-4 0 -10 -7 -14 -16z"/>
<path d="M6895 4799 c-274 -24 -367 -26 -612 -14 -344 16 -423 9 -612 -54 -80
-27 -238 -85 -351 -129 -341 -133 -479 -169 -695 -179 -145 -6 -255 8 -383 50
-120 39 -107 7 37 -92 105 -71 251 -146 329 -167 128 -35 503 -29 657 11 93
24 242 103 445 235 317 207 419 253 554 249 66 -2 73 -4 69 -20 -6 -20 -78
-72 -160 -113 -138 -69 -443 -297 -574 -428 -75 -74 -85 -104 -53 -153 14 -21
24 -25 63 -25 42 0 54 6 112 54 35 29 111 97 169 151 266 247 555 445 650 445
102 0 401 -205 680 -465 222 -208 239 -216 309 -140 22 24 41 53 41 64 0 58
-415 371 -697 524 -53 29 -98 58 -100 64 -6 17 50 43 89 43 101 0 243 -65 544
-251 110 -67 235 -139 279 -160 351 -169 839 -110 1171 141 52 39 65 62 44 75
-6 4 -50 -7 -98 -24 -168 -58 -393 -61 -630 -10 -140 31 -208 53 -388 129
-287 122 -447 170 -626 189 -106 12 -130 12 -263 0z"/>
<path d="M3865 3603 c-115 -15 -270 -90 -361 -175 -151 -141 -221 -317 -231
-578 -11 -295 56 -501 216 -660 101 -101 213 -156 378 -184 344 -61 663 70
663 272 0 48 -15 92 -31 92 -6 0 -41 -28 -77 -61 -113 -106 -248 -149 -402
-129 -153 19 -247 83 -306 208 -92 194 -90 677 4 883 60 134 144 191 284 192
93 1 123 -11 175 -65 40 -42 63 -97 71 -173 7 -57 9 -60 35 -63 16 -2 59 6 97
17 165 50 207 211 84 320 -52 46 -147 86 -236 101 -60 9 -299 12 -363 3z"/>
<path d="M4684 3586 c-3 -7 -4 -33 -2 -57 l3 -44 45 -3 c90 -5 110 -12 130
-45 19 -31 20 -55 20 -635 l0 -603 -25 -24 c-21 -21 -33 -25 -88 -25 -78 0
-89 -10 -85 -77 l3 -48 636 -3 c502 -2 639 1 646 10 6 7 12 97 14 203 l4 190
-73 3 c-83 3 -82 5 -102 -109 -15 -80 -33 -115 -73 -139 -29 -18 -52 -20 -264
-20 l-233 0 0 305 0 305 258 2 257 3 0 65 0 65 -257 3 -258 2 0 275 0 275 200
0 c270 0 279 -5 304 -178 l12 -87 75 0 74 0 0 200 0 200 -608 3 c-512 2 -608
0 -613 -12z"/>
<path d="M6054 3586 c-3 -7 -4 -33 -2 -57 l3 -43 57 -11 c105 -21 89 14 268
-585 98 -326 95 -316 164 -545 30 -99 62 -207 71 -240 9 -33 22 -66 27 -72 7
-9 48 -13 138 -13 90 0 130 4 137 13 11 12 278 876 297 959 6 25 15 47 20 48
6 0 15 -18 21 -42 6 -24 84 -248 174 -498 89 -250 164 -461 166 -468 4 -10 35
-12 132 -10 l127 3 12 35 c6 19 21 71 33 115 21 79 231 877 272 1030 48 182
71 235 112 256 11 7 43 14 71 18 l51 6 0 55 0 55 -285 0 -285 0 0 -55 0 -55
52 -6 c90 -11 103 -17 119 -54 19 -45 16 -62 -67 -403 -83 -337 -129 -551
-129 -593 0 -40 -24 -34 -27 7 -4 45 -61 222 -166 514 -52 146 -123 344 -158
440 -34 96 -67 181 -72 188 -6 7 -36 12 -82 12 -46 0 -76 -5 -82 -12 -8 -11
-301 -964 -334 -1088 -7 -25 -16 -49 -20 -53 -4 -5 -17 33 -29 85 -12 51 -62
235 -112 408 -113 395 -122 434 -109 481 13 42 39 59 112 67 l54 7 0 55 0 55
-363 3 c-303 2 -363 0 -368 -12z"/>
<path d="M9085 3588 c-32 -88 -174 -471 -195 -528 -15 -41 -87 -237 -160 -435
-72 -198 -143 -379 -156 -402 -27 -47 -67 -73 -112 -73 -41 0 -54 -20 -50 -77
l3 -48 285 0 285 0 3 48 c4 67 -7 77 -84 77 -119 0 -132 52 -61 260 l42 125
265 0 265 0 42 -118 c55 -154 62 -203 33 -239 -19 -25 -28 -28 -80 -28 -70 0
-82 -12 -78 -77 l3 -48 360 0 360 0 3 48 c4 61 -9 77 -61 77 -34 0 -46 6 -77
39 -21 22 -44 59 -53 83 -28 79 -308 871 -357 1008 -26 74 -60 171 -75 215
-15 44 -32 86 -37 93 -8 8 -52 12 -160 12 -110 0 -150 -3 -153 -12z m90 -264
c2 -20 48 -193 70 -259 56 -170 90 -279 105 -330 l17 -60 -217 0 -217 0 64
185 c121 348 154 449 156 470 2 25 20 21 22 -6z"/>
<path d="M2625 1850 c-4 -7 2 -14 14 -17 20 -5 21 -12 21 -134 0 -71 -3 -129
-7 -129 -3 0 -14 7 -23 15 -27 24 -81 29 -123 12 -84 -36 -102 -141 -33 -204
30 -28 43 -33 84 -33 28 0 57 7 71 16 22 16 24 16 33 0 10 -18 53 -22 63 -5 4
6 -2 13 -14 16 -20 5 -21 12 -23 237 l-3 231 -27 3 c-14 2 -29 -2 -33 -8z m0
-305 c28 -27 34 -88 12 -116 -46 -60 -143 -46 -166 24 -13 38 -7 62 22 95 30
32 99 31 132 -3z"/>
<path d="M5045 1850 c-4 -7 2 -14 14 -17 20 -5 21 -12 21 -129 0 -68 -4 -124
-9 -124 -5 0 -22 7 -37 15 -38 20 -72 19 -113 -3 -38 -21 -71 -73 -71 -113 0
-33 38 -90 70 -106 50 -25 126 -13 158 26 11 14 12 13 10 -9 -2 -20 2 -26 21
-28 32 -5 53 17 24 24 -22 6 -23 8 -25 238 l-3 231 -27 3 c-14 2 -29 -2 -33
-8z m9 -311 c14 -17 26 -39 26 -49 0 -53 -49 -100 -104 -100 -13 0 -38 12 -55
26 -25 21 -31 33 -31 65 0 57 34 89 94 89 37 0 48 -5 70 -31z"/>
<path d="M1755 1840 c-4 -7 2 -14 14 -17 21 -5 21 -10 21 -218 0 -208 0 -213
-21 -218 -35 -9 -11 -27 36 -27 47 0 71 18 36 27 -18 5 -21 13 -21 65 0 52 3
63 29 89 21 21 39 29 63 29 50 0 58 -14 58 -101 0 -69 -2 -77 -21 -82 -35 -9
-11 -27 36 -27 46 0 66 13 42 27 -10 5 -16 35 -19 92 -4 76 -7 87 -32 108 -33
28 -71 29 -114 3 -18 -11 -34 -20 -37 -20 -2 0 -6 62 -7 138 l-3 137 -27 3
c-14 2 -29 -2 -33 -8z"/>
<path d="M2275 1840 c-4 -7 2 -14 14 -17 21 -5 21 -10 21 -218 0 -208 0 -213
-21 -218 -35 -9 -11 -27 36 -27 47 0 71 18 36 27 -20 5 -21 12 -23 232 l-3
226 -27 3 c-14 2 -29 -2 -33 -8z"/>
<path d="M7275 1841 c-3 -6 1 -14 9 -17 14 -5 16 -35 16 -219 0 -184 -2 -214
-16 -219 -28 -11 -4 -26 41 -26 47 0 71 18 36 27 -20 5 -21 12 -23 232 l-3
226 -27 3 c-14 2 -29 -2 -33 -7z"/>
<path d="M7517 1820 c-38 -33 -57 -88 -57 -166 0 -33 -5 -51 -17 -60 -17 -12
-17 -13 0 -19 25 -10 26 -180 0 -189 -31 -12 3 -27 53 -24 48 3 64 20 24 26
-18 3 -20 11 -20 92 l0 89 33 3 c17 2 32 8 32 13 0 6 -15 11 -32 13 l-33 3 0
76 0 77 45 41 c24 23 42 45 38 49 -13 12 -33 5 -66 -24z"/>
<path d="M1508 1816 c-56 -20 -85 -42 -117 -87 -69 -94 -57 -233 26 -310 63
-59 156 -82 228 -56 41 14 57 45 20 38 -50 -9 -128 -12 -150 -7 -37 9 -96 66
-116 111 -36 78 -16 178 47 237 38 35 74 48 134 48 62 0 79 -7 91 -38 12 -31
32 -16 27 19 -6 46 -117 72 -190 45z"/>
<path d="M4145 1810 c-4 -7 2 -14 14 -17 20 -5 21 -11 21 -203 0 -196 0 -198
-22 -204 -16 -4 -20 -8 -12 -16 7 -7 64 -10 160 -8 l149 3 0 38 c0 43 -18 55
-23 15 l-3 -28 -110 0 -109 0 0 90 0 89 103 3 c59 2 102 7 102 13 0 6 -43 11
-102 13 l-103 3 0 94 0 95 104 0 105 0 3 -32 c4 -48 23 -36 23 15 l0 42 -147
3 c-98 2 -149 -1 -153 -8z"/>
<path d="M6215 1810 c-3 -6 5 -14 18 -19 19 -7 39 -48 107 -210 45 -110 88
-205 95 -211 17 -14 25 -2 76 122 24 59 48 106 54 105 5 -2 29 -50 52 -107 51
-122 61 -137 78 -118 7 7 49 104 95 215 68 164 88 203 104 205 39 6 16 23 -29
23 -25 0 -44 -4 -42 -10 1 -5 5 -9 9 -8 10 4 -4 -36 -72 -200 -36 -86 -70
-157 -76 -157 -6 0 -44 77 -83 172 -61 147 -69 173 -56 181 26 14 7 27 -40 27
-48 0 -71 -18 -35 -27 23 -6 70 -95 70 -131 -1 -25 -85 -215 -97 -219 -5 -2
-42 74 -82 169 -61 147 -69 173 -56 181 8 4 13 12 10 18 -8 12 -92 12 -100 -1z"/>
<path d="M8897 1813 c-4 -6 -143 -335 -174 -410 -2 -6 -14 -14 -26 -17 -16 -4
-19 -8 -11 -16 14 -14 95 -9 92 5 -2 6 -8 9 -15 9 -11 -2 -3 24 41 129 l16 37
90 0 c50 0 90 -1 90 -3 0 -1 15 -39 34 -84 20 -46 29 -80 23 -79 -7 0 -13 -3
-15 -9 -1 -5 16 -11 39 -13 49 -4 74 13 39 26 -18 7 -41 51 -110 217 -82 194
-100 229 -113 208z"/>
<path d="M10736 1753 c-3 -3 -6 -39 -6 -79 0 -68 -2 -73 -22 -76 -29 -4 -30
-22 -1 -26 21 -3 22 -9 25 -105 3 -99 4 -102 27 -105 33 -5 53 17 23 24 -21 6
-22 12 -22 95 l0 88 33 3 c17 2 32 8 32 13 0 6 -15 11 -32 13 l-33 3 0 74 c0
68 -8 94 -24 78z"/>
<path d="M2915 1600 c-12 -4 -27 -15 -34 -24 -18 -21 -28 -20 -34 4 -3 12 -14
20 -25 20 -26 0 -38 -18 -18 -26 13 -5 16 -24 16 -94 0 -81 -2 -88 -21 -93
-36 -10 -10 -27 41 -27 51 0 77 17 41 27 -18 5 -21 13 -21 67 0 72 16 102 63
114 18 5 32 14 32 22 0 17 -14 21 -40 10z"/>
<path d="M3074 1596 c-66 -29 -95 -112 -60 -174 29 -54 126 -81 171 -49 24 18
11 41 -15 27 -25 -13 -60 -12 -90 3 -43 22 -29 38 60 73 49 18 86 39 88 48 5
25 -15 52 -52 70 -41 19 -61 20 -102 2z"/>
<path d="M3405 1590 c-34 -17 -40 -18 -48 -5 -9 17 -43 20 -52 5 -3 -6 1 -13
9 -16 13 -5 16 -24 16 -94 0 -81 -2 -88 -21 -93 -35 -9 -11 -27 36 -27 45 0
69 15 41 26 -12 5 -16 22 -16 74 0 62 2 71 26 89 29 23 83 28 102 9 7 -7 12
-42 12 -89 0 -69 -2 -77 -21 -82 -35 -9 -11 -27 36 -27 45 0 69 15 41 26 -13
5 -16 22 -16 81 0 83 -17 127 -52 137 -37 9 -51 7 -93 -14z"/>
<path d="M3775 1585 c-46 -45 -28 -90 47 -114 40 -13 57 -43 38 -66 -17 -20
-69 -19 -92 1 -16 16 -18 15 -24 0 -10 -25 17 -47 62 -53 53 -7 94 24 94 71 0
37 -18 57 -73 80 -31 12 -38 20 -35 38 4 29 56 39 70 14 11 -20 28 -11 28 14
0 43 -77 53 -115 15z"/>
<path d="M4617 1587 c-21 -13 -35 -26 -32 -30 3 -4 2 -4 -2 -1 -4 3 -8 13 -8
22 0 20 -42 29 -58 13 -9 -9 -6 -13 11 -17 21 -6 22 -12 22 -94 0 -81 -2 -88
-21 -93 -35 -9 -11 -27 36 -27 47 0 71 18 36 27 -18 5 -21 13 -21 65 0 52 3
63 29 89 21 21 39 29 63 29 50 0 58 -14 58 -101 0 -69 -2 -77 -21 -82 -35 -9
-11 -27 36 -27 46 0 66 13 42 27 -10 5 -16 35 -19 92 -4 76 -7 87 -32 108 -34
29 -71 29 -119 0z"/>
<path d="M5273 1595 c-42 -18 -73 -69 -73 -119 0 -31 7 -45 39 -77 33 -33 45
-39 82 -39 116 0 180 128 101 202 -54 50 -91 59 -149 33z m121 -50 c38 -35 36
-87 -4 -127 -27 -27 -36 -30 -72 -25 -50 7 -77 32 -85 80 -5 31 -1 40 25 67
40 39 96 42 136 5z"/>
<path d="M5793 1595 c-117 -51 -78 -235 50 -235 47 0 84 20 73 39 -5 8 -13 8
-26 1 -10 -5 -28 -10 -40 -10 -29 0 -82 29 -78 42 2 6 41 25 86 42 44 17 86
36 93 43 27 27 -52 94 -108 93 -10 -1 -33 -7 -50 -15z"/>
<path d="M7041 1592 c-38 -21 -71 -73 -71 -113 0 -33 38 -90 70 -106 54 -27
165 -4 134 27 -9 9 -17 9 -32 1 -11 -6 -31 -11 -44 -11 -27 0 -68 26 -68 43 0
7 36 25 81 42 44 16 85 35 90 42 23 27 -48 93 -101 93 -14 0 -41 -8 -59 -18z"/>
<path d="M7693 1595 c-81 -35 -96 -141 -29 -202 30 -28 43 -33 84 -33 28 0 57
7 71 16 22 16 24 16 33 0 10 -18 53 -22 63 -5 4 6 -2 13 -14 16 -19 5 -21 12
-21 97 0 96 -5 113 -26 95 -9 -7 -22 -4 -46 11 -38 23 -70 25 -115 5z m122
-50 c28 -27 34 -88 12 -116 -46 -60 -143 -46 -166 24 -13 38 -7 62 22 95 30
32 99 31 132 -3z"/>
<path d="M8263 1595 c-117 -51 -78 -235 50 -235 47 0 84 20 73 39 -5 8 -13 8
-26 1 -10 -5 -28 -10 -40 -10 -29 0 -82 29 -78 42 2 6 41 25 86 42 44 17 86
36 93 43 27 27 -52 94 -108 93 -10 -1 -33 -7 -50 -15z"/>
<path d="M9236 1589 c-31 -24 -35 -68 -8 -91 9 -9 34 -23 55 -32 42 -17 55
-39 37 -61 -17 -21 -80 -19 -96 3 -12 16 -13 16 -20 -1 -19 -51 99 -75 137
-28 39 48 21 93 -48 120 -40 16 -55 34 -47 55 8 21 70 22 78 0 8 -20 26 -8 26
17 0 12 -10 23 -26 29 -38 15 -58 12 -88 -11z"/>
<path d="M9446 1589 c-19 -15 -26 -30 -26 -55 0 -33 3 -37 56 -60 50 -22 55
-27 52 -52 -3 -23 -8 -27 -41 -30 -29 -2 -42 2 -52 15 -13 17 -14 17 -20 1
-11 -29 2 -46 40 -54 44 -8 78 6 101 40 27 43 12 74 -52 102 -46 20 -55 28
-52 47 2 17 11 23 37 25 24 2 37 -1 43 -12 11 -20 28 -11 28 15 0 12 -10 23
-26 29 -38 15 -58 12 -88 -11z"/>
<path d="M9684 1596 c-94 -41 -102 -176 -13 -222 57 -29 139 -11 173 38 24 34
21 109 -6 143 -22 28 -74 55 -105 55 -10 -1 -32 -7 -49 -14z m120 -57 c51 -60
19 -135 -61 -146 -37 -5 -45 -2 -73 25 -62 62 -24 152 65 152 36 0 48 -5 69
-31z"/>
<path d="M9973 1590 c-43 -26 -66 -63 -66 -108 0 -49 16 -78 56 -102 37 -23
109 -26 126 -7 16 20 5 25 -44 19 -39 -4 -47 -1 -75 26 -63 64 -26 152 65 152
40 0 47 -3 55 -26 12 -30 30 -23 30 12 0 19 -8 28 -35 40 -46 19 -74 18 -112
-6z"/>
<path d="M10393 1590 c-43 -26 -66 -63 -66 -108 0 -49 16 -78 56 -102 53 -33
130 -24 165 19 11 14 12 13 10 -9 -3 -26 19 -37 50 -25 16 6 16 7 0 19 -14 10
-18 32 -20 112 -2 80 -6 99 -18 99 -10 0 -14 -8 -12 -25 l3 -25 -18 22 c-36
44 -100 54 -150 23z m118 -33 c69 -53 40 -152 -48 -164 -37 -5 -45 -2 -73 25
-62 63 -26 152 62 152 24 0 50 -6 59 -13z"/>
<path d="M11124 1596 c-94 -41 -102 -176 -13 -222 57 -29 139 -11 173 38 24
34 21 109 -6 143 -22 28 -74 55 -105 55 -10 -1 -32 -7 -49 -14z m120 -57 c51
-60 19 -135 -61 -146 -37 -5 -45 -2 -73 25 -62 62 -24 152 65 152 36 0 48 -5
69 -31z"/>
<path d="M11466 1589 c-35 -19 -40 -19 -48 -5 -10 18 -43 21 -53 6 -3 -6 1
-13 9 -16 13 -5 16 -24 16 -94 0 -81 -2 -88 -21 -93 -36 -10 -10 -27 41 -27
51 0 77 17 41 27 -19 5 -21 13 -21 70 0 81 25 113 90 113 50 0 60 -20 60 -114
0 -56 -2 -64 -21 -69 -35 -9 -11 -27 36 -27 47 0 71 18 36 27 -19 5 -21 12
-21 90 0 76 -2 86 -25 108 -30 31 -67 32 -119 4z"/>
</g>
</svg>
